PathFileType	4	(X/Y/Z)	F:\MotionCapture\20160217\3\Generated_files\EMG_Fprce_test05-Dynamic.trc
DataRate	CameraRate	NumFrames	NumMarkers	Units	OrigDataRate	OrigDataStartFrame	OrigNumFrames
120.00	120.00	       8	39	mm	120.00	95	       188
Frame#	Time	Top.Head			Front.Head			Rear.Head			R.Shoulder			R.Offset			R.Elbow			R.Wrist			L.Shoulder			L.Elbow			L.Wrist			R.ASIS			L.ASIS			V.Sacral			R.Thigh			R.Knee			R.Shank			R.Ankle			R.Heel			R.Toe			L.Thigh			L.Knee			L.Shank			L.Ankle			L.Heel			L.Toe			R1			R2			R3			R4			R5			R6			R7			L1			L2			L3			L4			L5			L6			L7			V_Mid_ASIS			V_Pelvis_Origin			V_R.Hip_JC			V_L.Hip_JC			V_R.Knee_JC			V_L.Knee_JC			V_R.Ankle_JC			V_L.Ankle_JC			V_Mid_Hip			V_Mid_Shoulder			V_R.Hand			V_L.Hand			V_R.Toe_Offset_Static			V_L.Toe_Offset_Static			V_R.Toe_Offset			V_L.Toe_Offset			
		X1	Y1	Z1	X2	Y2	Z2	X3	Y3	Z3	X4	Y4	Z4	X5	Y5	Z5	X6	Y6	Z6	X7	Y7	Z7	X8	Y8	Z8	X9	Y9	Z9	X10	Y10	Z10	X11	Y11	Z11	X12	Y12	Z12	X13	Y13	Z13	X14	Y14	Z14	X15	Y15	Z15	X16	Y16	Z16	X17	Y17	Z17	X18	Y18	Z18	X19	Y19	Z19	X20	Y20	Z20	X21	Y21	Z21	X22	Y22	Z22	X23	Y23	Z23	X24	Y24	Z24	X25	Y25	Z25	X26	Y26	Z26	X27	Y27	Z27	X28	Y28	Z28	X29	Y29	Z29	X30	Y30	Z30	X31	Y31	Z31	X32	Y32	Z32	X33	Y33	Z33	X34	Y34	Z34	X35	Y35	Z35	X36	Y36	Z36	X37	Y37	Z37	X38	Y38	Z38	X39	Y39	Z39	

95	0.783	1947.50281	62.78673	1668.52734	1863.96790	14.41621	1567.62598	2058.05396	106.21789	1619.66357	2039.33154	276.98758	1381.92395	2212.97461	19.26828	1260.55115	2184.89380	407.44440	1119.08105	2202.77954	472.48199	865.64789	2045.75085	-125.07480	1378.54932	2037.34827	-206.44006	1046.79236	1844.16028	-139.31866	888.92804	2044.33435	200.42703	908.24597	2079.92969	-85.17366	895.75311	2281.45337	93.68143	932.15979	1894.53027	146.34079	614.26691	1903.16467	191.05908	487.11539	1896.59509	113.86470	253.24477	1932.35815	188.57959	85.29620	2005.63269	138.34926	61.83604	1792.30225	140.23111	45.47066	2124.31763	-69.90645	563.14386	2281.52246	-114.92546	446.52707	2350.73950	-44.78071	318.09286	2581.84888	-95.11021	155.52997	2636.83545	-35.76383	182.64253	2488.62695	-75.03928	49.07459	1745.33887	103.02158	36.14034	1795.42456	101.36682	50.74807	1896.77905	86.06985	68.08012	1966.27502	100.98309	59.47546	1967.27161	174.72244	58.32640	1888.16394	187.61449	44.44283	1821.13452	194.22955	37.39231	2452.53735	-47.06340	41.37166	2474.30811	-39.91422	55.62041	2533.78418	-10.46910	120.00643	2600.66162	-7.33780	161.65176	2622.69312	-76.11643	160.83183	2574.08008	-100.75652	92.84803	2524.75073	-104.25919	55.12687																																																	1240.93958	23.42556	1461.17786	
96	0.792	1953.93823	61.51121	1668.44409	1868.60486	14.97823	1567.48242	2064.98901	102.68084	1619.43872	2045.00928	275.27536	1381.35022	2218.09741	18.20801	1259.43030	2190.24512	406.17813	1118.58716	2209.79272	471.10815	864.77637	2050.66724	-125.63903	1377.68494	2042.53821	-208.32611	1046.13733	1848.40686	-141.86165	888.71356	2048.26929	199.15132	907.52277	2083.31592	-85.70368	894.57001	2285.31030	92.75477	930.78284	1897.12817	145.92947	614.75189	1905.33655	191.08742	487.40771	1897.64197	113.92903	253.58304	1932.47192	188.79623	85.37994	2005.58374	138.31703	61.98064	1792.28284	140.35985	45.45008	2128.10498	-69.91436	562.01398	2285.50684	-114.50854	445.03976	2353.94604	-44.99614	316.70786	2584.47314	-93.96924	153.27495	2639.66821	-35.02882	179.56032	2489.28931	-75.09384	48.79968	1745.35193	103.01707	36.11737	1795.36572	101.45086	50.76066	1896.73352	86.24601	68.35783	1966.15259	101.02415	59.66688	1968.42627	176.07063	59.54795	1888.07214	187.63771	44.34242	1821.01501	194.44102	37.27398	2453.22485	-46.89084	41.55544	2475.20679	-39.83943	55.10704	2536.40137	-9.27167	118.23905	2603.88892	-6.07733	159.07182	2625.17358	-75.42414	157.47870	2575.45483	-100.53028	90.73752	2525.87500	-104.48605	54.31347																																																	1246.89514	22.77297	1460.75977	
97	0.800	1960.75269	59.67631	1668.07251	1874.10303	16.18533	1567.28455	2072.71240	99.53857	1619.03491	2050.45386	273.98755	1380.89795	2223.34985	16.98979	1258.12268	2195.43823	404.70456	1117.72754	2215.97705	469.73898	864.31946	2056.76953	-127.68611	1376.84778	2047.91479	-209.82541	1045.23645	1852.72253	-144.01057	888.50330	2052.09326	197.99780	906.95630	2087.21436	-86.43257	893.43323	2289.61230	92.02940	929.41913	1899.05151	146.06787	614.88458	1907.53137	191.26443	487.82507	1898.56543	113.92239	253.94815	1932.59216	188.95723	85.47819	2005.48621	138.39276	62.31037	1792.18530	140.40065	45.31575	2132.21167	-70.87196	561.23914	2289.37939	-114.66001	443.85220	2357.06006	-44.99269	315.47238	2587.01392	-93.20341	150.29579	2642.60229	-33.92211	176.15402	2489.28516	-75.02147	48.45190	1745.37842	102.97047	36.14445	1795.33252	101.59270	50.82307	1896.09302	86.58635	68.76748	1966.04041	101.05430	59.82434	1968.32129	176.16801	59.53731	1888.03113	187.64836	44.36485	1820.90979	194.54538	37.18892	2453.69775	-46.81536	41.63696	2476.13794	-39.66924	54.68722	2537.94653	-8.79597	115.60954	2606.64380	-5.51381	155.70009	2628.09619	-74.67513	154.79034	2577.48584	-100.09405	89.30611	2526.54443	-104.69319	53.88563																																																	1513.20898	54.83433	135.67445	1252.24731	21.81749	1460.18835	
98	0.808	1967.63110	58.64557	1667.71338	1880.05481	16.92105	1566.73486	2080.02490	96.05591	1618.39331	2056.81128	272.74716	1380.36267	2229.08740	15.60360	1256.81677	2201.48389	402.79752	1116.81580	2221.50684	467.94257	863.88531	2062.10840	-128.60326	1375.56470	2053.32764	-211.42149	1044.84192	1857.52844	-146.46886	888.67114	2056.86841	197.20227	906.20245	2091.55835	-86.91743	892.60358	2293.92603	91.03390	927.68195	1902.43823	146.32953	615.74756	1909.51794	191.08012	488.58179	1898.94458	114.11877	254.04260	1932.73376	189.11505	85.57722	2005.48926	138.29181	62.18165	1792.22876	140.59639	45.40396	2135.87402	-71.11847	560.26324	2292.68188	-114.28060	442.31152	2360.11255	-45.12715	312.95111	2589.53491	-91.46811	148.08119	2645.77148	-32.73558	172.11177	2490.37573	-75.01735	47.97492	1745.41943	103.01172	36.19574	1795.28967	101.79091	50.86437	1896.37708	86.96555	69.16341	1965.93408	101.17091	60.04516	1968.31885	176.17596	59.58567	1888.06555	187.71982	44.39278	1820.94739	194.70407	37.12125	2454.09229	-47.03460	41.83038	2477.12378	-39.53417	53.99355	2540.37891	-7.84707	113.40135	2609.01563	-4.66624	152.08310	2630.83667	-73.85537	151.74025	2578.89014	-99.67499	87.11891	2527.54199	-104.62562	53.21021																																																	1258.30127	20.53973	1460.03479	
99	0.817	1974.80444	57.29858	1666.96997	1887.29272	17.91049	1566.40759	2088.06396	92.90594	1617.86597	2062.96851	271.60059	1379.63306	2234.81079	14.44145	1255.29358	2207.31567	401.12064	1115.68555	2228.47168	466.45621	862.66553	2068.88818	-129.90430	1374.84302	2058.62744	-212.98447	1043.54883	1862.02661	-148.45792	888.73639	2060.57031	196.77933	905.41254	2096.43750	-88.37541	891.96033	2298.37817	90.15931	925.82404	1904.70972	145.96626	616.27454	1910.66724	190.87128	488.52298	1899.18481	114.15244	254.14259	1932.89453	189.26299	85.68872	2005.42053	138.26224	62.20637	1792.16687	140.65346	45.40848	2141.63623	-70.67100	558.09863	2296.72925	-113.97892	440.37061	2363.66333	-43.81039	311.49619	2593.19482	-92.06291	146.68303	2648.59106	-32.06517	168.85686	2490.91870	-74.85618	47.66724	1745.37585	102.98599	36.19293	1795.28174	101.93781	50.90668	1896.28015	87.14085	69.33197	1965.81726	101.36687	60.12262	1968.31982	176.19409	59.56803	1888.04541	187.72127	44.34248	1820.88049	194.88231	37.05861	2454.41577	-47.00089	41.75927	2478.19434	-39.24869	53.44752	2542.70337	-7.07464	110.88317	2612.55469	-3.52146	149.18129	2633.76050	-72.76737	148.68837	2580.67554	-99.40074	85.05734	2528.29590	-104.54476	52.53818																																																	1262.69678	19.31781	1459.60413	
100	0.825	1982.99219	56.16562	1666.51270	1894.32703	18.58561	1566.31995	2096.20532	89.64148	1616.87378	2069.50049	269.86490	1378.78186	2240.99365	12.85746	1253.58044	2213.72412	399.72092	1115.05078	2236.32642	463.99722	861.66882	2075.07373	-131.49908	1373.98779	2064.02881	-214.42073	1043.46472	1867.09009	-150.50302	888.60303	2064.98340	195.14130	904.69891	2101.47388	-89.47120	890.97095	2303.05859	89.11480	923.97272	1907.75415	146.17102	616.77209	1913.23108	190.64391	488.81729	1899.95276	114.26139	254.20448	1933.03845	189.31659	85.72259	2005.38806	138.24106	62.22708	1792.17139	140.76897	45.40599	2144.60352	-70.91682	557.31360	2299.93677	-114.01730	438.74954	2366.77783	-43.56565	309.96094	2594.94751	-89.87601	142.54825	2651.82471	-30.70660	164.81444	2491.68408	-74.73872	47.44567	1745.35303	103.02865	36.20108	1795.29297	102.04962	50.92509	1896.23865	87.28082	69.43629	1965.77100	101.35900	60.17451	1968.32104	176.20892	59.58669	1888.06555	187.79276	44.27468	1820.90833	194.96756	37.00685	2454.89746	-47.00904	41.71722	2478.82983	-39.21786	53.16326	2544.77466	-6.64217	108.90269	2615.31592	-2.26126	145.50807	2636.53442	-71.90758	145.20331	2582.45898	-99.06906	83.25389	2529.32520	-104.46969	51.97324																																																	1269.21924	18.65540	1458.31311	
101	0.833	1990.40015	54.42324	1665.86243	1900.80493	18.72261	1565.64856	2104.34131	86.42504	1615.89990	2076.82617	268.75305	1377.99182	2247.67505	11.40087	1252.01746	2220.64673	397.56805	1113.99084	2242.80518	462.58978	860.54614	2082.47046	-133.05569	1373.07654	2070.40259	-215.94162	1041.60571	1872.05847	-152.27483	888.54150	2070.14111	194.59111	904.17010	2106.07446	-90.11259	890.00922	2307.79590	87.89471	921.74719	1911.08887	146.03812	617.03326	1915.73755	189.89371	488.81021	1900.75830	114.13163	254.38043	1933.20715	189.40271	85.73590	2005.33862	138.22688	62.09026	1792.15698	140.85110	45.41292	2147.38940	-70.68795	556.01465	2303.77124	-113.50078	436.62683	2370.14307	-42.80037	307.41931	2597.80225	-88.54486	139.66814	2655.37305	-28.99802	160.96623	2492.46387	-74.65463	47.12277	1745.39038	103.02471	36.27645	1795.26196	102.16682	50.99035	1896.74402	87.09573	69.42455	1965.69788	101.44373	60.16958	1968.33472	176.18646	59.50106	1888.01392	187.76532	44.21095	1820.90100	195.04311	36.87319	2455.22656	-47.06149	41.78968	2479.74268	-38.96354	53.14479	2547.08740	-6.19745	106.83316	2617.56982	-1.49171	141.11746	2639.32104	-70.14554	141.75426	2584.02002	-98.50721	81.26035	2530.56226	-104.11188	51.39823																																																	1276.81079	17.14802	1457.64087	
102	0.842	1998.95972	52.90807	1665.00293	1907.97046	18.98286	1564.80383	2112.86572	83.15489	1614.75598	2083.82593	266.95859	1377.30396	2254.09351	9.66663	1250.08130	2227.37354	395.33804	1112.65234	2251.10522	461.08319	860.01550	2088.86670	-134.38310	1371.52588	2076.51343	-218.10031	1040.77808	1876.85620	-153.87469	888.11792	2075.29297	193.98540	903.09967	2110.90112	-91.30262	888.67651	2312.99780	86.78040	919.67194	1913.82971	145.93457	616.95013	1917.68188	190.26036	488.67508	1901.57190	114.05324	254.28139	1933.48999	189.52493	85.54217	2005.32446	138.24779	61.81970	1792.08215	140.97681	45.29639	2152.70483	-71.10756	554.62549	2307.73169	-113.16391	434.58777	2373.81421	-41.83178	305.55383	2601.14868	-88.00642	137.38658	2658.63794	-27.59738	157.27486	2493.46948	-74.55555	46.91261				1795.16138	102.30008	50.95358	1896.66748	87.21166	69.36069	1965.68701	100.06021	59.96079	1967.07751	174.94455	58.17259	1887.97742	187.76149	43.95495	1820.89575	195.09691	36.81814	2455.38940	-47.09185	41.74450	2480.90649	-38.99580	52.90098	2549.80347	-4.57068	104.33576	2621.36182	0.96456	139.02362	2642.37402	-68.65878	138.41386	2586.32666	-97.82405	79.72861	2531.74194	-103.59447	50.66475																																																	1284.57690	15.44963	1457.11462	1745.31909	103.01401	36.20644	
